<svg id="Layer_1" data-name="Layer 1" xmlns="http://www.w3.org/2000/svg" viewBox="0 0 330 330"><defs><style>.cls-1{fill:#3840b1;}.cls-2{fill:#fff;}</style></defs><title>Artboard 1</title><circle class="cls-1" cx="164.85" cy="164.65" r="165.15"/><path class="cls-2" d="M50.9,213.53c4.29.33,8.91-.66,12.88.67,45.91,15.85,92.48,26.42,141.37,22.13,24.11-2,47.56-7.93,65.73-25.77.66-.66,2.31-1,6.27-2.64-1.32,5-1.32,7.93-3,10.57-11.56,18.17-30.72,25.76-50.54,28.07-60.44,7.6-118.24-2.64-173.07-29.39A12.41,12.41,0,0,0,50.9,213.53Z"/><path class="cls-2" d="M138.1,200c-5.29,1-9.91,1.32-14.54,2.64-11.23,3.31-21.14,1.33-28.73-7.26-6.61-7.93-4-17.18.33-25.77.33-.66,0-1.32,0-2.31C86.57,164,76.66,161,77,149.13c.33-15.2,7.6-27.09,19.49-35.68,6.27-4.62,13.54-7.59,20.81-10.24,7.26-2.31,15.19-3.3,22.46-4.95,3.3-18.83,10.24-35.67,22.46-50.21,2.31,19.49-14.87,35-8.59,55.49,1.65-2,3-4.29,4.62-6.27,1-1.32,3.31-3,4.3-2.64,1.32.66,3.3,3.3,3,4-3.63,6.28-6.28,14.2-11.56,17.84-6.61,4.29-11.89-1.66-14.2-8.92-17.18,2-32.37,7.26-43.6,20.15-4,4.62-8.59,13.54-6.61,17.83,3.3,7.6,12.88,6.94,20.15,3.64,27.41-12.56,54.17-25.77,81.25-38.65,16.52-7.93,34-12.22,52.52-11.56,3,11.23-.33,14.53-9.91,16.52-11.89,2.31-24.44,4.62-35.34,9.57-26.42,11.89-52.19,25.44-78.28,38.65-5,2.64-9.91,5.28-13.87,8.92-2.32,2.31-4,6.93-3.31,9.91.33,2,6,4.95,8.26,4.29a309.73,309.73,0,0,0,34.35-9.58c12.22-4.29,23.78-9.91,36.34-15.52-2.65-3-5.62-5.29-6.94-8.26s-3-6.94-1.65-9.58c.66-2,5.61-3.3,8.59-2.64,7.59,1.32,16.18,1,20.47,7.6,13.55-4.3,27.42-8.92,41.29-12.23,2.64-.66,9.58,3.64,9.25,4.3-1.65,5.28-2,11.56-10.24,11.89-6.94.33-13.54,2.64-20.48,4v2.65c4,2,8.26,4,12.22,6.27,10.9,6.28,12.55,15.86,3.64,24.11-20.15,18.5-43.27,32.37-70,39.31-17.5,4.62-28.4-4.63-29.06-22.79A58.32,58.32,0,0,0,138.1,200Zm95.12-17.17c-11.23-4-21.14-7.6-30.72-10.9-1.65-.66-4.29.33-6.27,1.32-11.56,5.28-22.79,10.9-34.35,16.18-7.93,4-13.88,15.53-10.24,21.47,4.62,7.6,12.22,7.27,19.82,5C193.92,209.24,213.07,196.69,233.22,182.82Z"/></svg>