<?xml version="1.0" encoding="utf-8"?>
<!-- Generator: Adobe Illustrator 22.0.0, SVG Export Plug-In . SVG Version: 6.00 Build 0)  -->
<svg version="1.1" id="Layer_1" xmlns="http://www.w3.org/2000/svg" xmlns:xlink="http://www.w3.org/1999/xlink" x="0px" y="0px"
	 viewBox="0 0 330 330" style="enable-background:new 0 0 330 330;" xml:space="preserve">
<style type="text/css">
	.st0{fill:#3840B1;}
	.st1{fill:#FFFFFF;}
</style>
<g>
	<circle class="st0" cx="164.8" cy="164.7" r="165.2"/>
</g>
<g>
	<path class="st1" d="M50.9,213.5c4.3,0.3,8.9-0.7,12.9,0.7c45.9,15.9,92.5,26.4,141.4,22.1c24.1-2,47.6-7.9,65.7-25.8
		c0.7-0.7,2.3-1,6.3-2.6c-1.3,5-1.3,7.9-3,10.6c-11.6,18.2-30.7,25.8-50.5,28.1c-60.4,7.6-118.2-2.6-173.1-29.4
		C50.9,216.2,50.9,214.9,50.9,213.5z"/>
	<path class="st1" d="M138.1,200c-5.3,1-9.9,1.3-14.5,2.6c-11.2,3.3-21.1,1.3-28.7-7.3c-6.6-7.9-4-17.2,0.3-25.8
		c0.3-0.7,0-1.3,0-2.3C86.6,164,76.7,161,77,149.1c0.3-15.2,7.6-27.1,19.5-35.7c6.3-4.6,13.5-7.6,20.8-10.2c7.3-2.3,15.2-3.3,22.5-5
		c3.3-18.8,10.2-35.7,22.5-50.2c2.3,19.5-14.9,35-8.6,55.5c1.7-2,3-4.3,4.6-6.3c1-1.3,3.3-3,4.3-2.6c1.3,0.7,3.3,3.3,3,4
		c-3.6,6.3-6.3,14.2-11.6,17.8c-6.6,4.3-11.9-1.7-14.2-8.9c-17.2,2-32.4,7.3-43.6,20.1c-4,4.6-8.6,13.5-6.6,17.8
		c3.3,7.6,12.9,6.9,20.1,3.6c27.4-12.6,54.2-25.8,81.3-38.6c16.5-7.9,34-12.2,52.5-11.6c3,11.2-0.3,14.5-9.9,16.5
		c-11.9,2.3-24.4,4.6-35.3,9.6c-26.4,11.9-52.2,25.4-78.3,38.6c-5,2.6-9.9,5.3-13.9,8.9c-2.3,2.3-4,6.9-3.3,9.9c0.3,2,5.9,5,8.3,4.3
		c11.6-2.6,23.1-5.6,34.4-9.6c12.2-4.3,23.8-9.9,36.3-15.5c-2.6-3-5.6-5.3-6.9-8.3s-3-6.9-1.7-9.6c0.7-2,5.6-3.3,8.6-2.6
		c7.6,1.3,16.2,1,20.5,7.6c13.5-4.3,27.4-8.9,41.3-12.2c2.6-0.7,9.6,3.6,9.2,4.3c-1.7,5.3-2,11.6-10.2,11.9
		c-6.9,0.3-13.5,2.6-20.5,4c0,1,0,1.7,0,2.6c4,2,8.3,4,12.2,6.3c10.9,6.3,12.6,15.9,3.6,24.1c-20.1,18.5-43.3,32.4-70,39.3
		c-17.5,4.6-28.4-4.6-29.1-22.8C138.8,204.6,138.4,202.6,138.1,200z M233.2,182.8c-11.2-4-21.1-7.6-30.7-10.9
		c-1.7-0.7-4.3,0.3-6.3,1.3c-11.6,5.3-22.8,10.9-34.4,16.2c-7.9,4-13.9,15.5-10.2,21.5c4.6,7.6,12.2,7.3,19.8,5
		C193.9,209.2,213.1,196.7,233.2,182.8z"/>
</g>
</svg>
